<svg height="512pt" viewBox="0 0 512 512" width="512pt" xmlns="http://www.w3.org/2000/svg"><path d="m0 182c0 16.5 13.5 30 30 30h60v-90h-60c-16.5 0-30 43.5-30 60zm0 0" fill="#7984eb"/><path d="m512 452c0 16.5-13.5 30-30 30h-60v-90h60c16.5 0 30 43.5 30 60zm0 0" fill="#6b77e8"/><path d="m452 122v375c0 8.398438-6.597656 15-15 15h-362c-8.402344 0-15-6.601562-15-15v-482c0-8.402344 6.597656-15 15-15h257zm0 0" fill="#deecf1"/><path d="m452 122v375c0 8.398438-6.597656 15-15 15h-181v-512h76zm0 0" fill="#c6e2e7"/><path d="m332 107v-107h15c3.984375 0 7.792969 1.582031 10.605469 4.394531l90 92c2.8125 2.8125 4.394531 6.621094 4.394531 10.605469v15h-105c-8.285156 0-15-6.714844-15-15zm0 0" fill="#8ebac5"/><g fill="#a8d3d8"><path d="m362 167c0 8.398438-6.597656 15-15 15h-91c-8.402344 0-15-6.601562-15-15 0-8.402344 6.597656-15 15-15h91c8.402344 0 15 6.597656 15 15zm0 0"/><path d="m362 227c0 8.398438-6.597656 15-15 15h-91c-8.402344 0-15-6.601562-15-15 0-8.402344 6.597656-15 15-15h91c8.402344 0 15 6.597656 15 15zm0 0"/><path d="m226 362h-91c-8.289062 0-15-6.710938-15-15s6.710938-15 15-15h91c8.289062 0 15 6.710938 15 15s-6.710938 15-15 15zm0 0"/><path d="m226 422h-91c-8.289062 0-15-6.710938-15-15s6.710938-15 15-15h91c8.289062 0 15 6.710938 15 15s-6.710938 15-15 15zm0 0"/><path d="m362 287c0 8.398438-6.597656 15-15 15h-212c-8.402344 0-15-6.601562-15-15 0-8.402344 6.597656-15 15-15h212c8.402344 0 15 6.597656 15 15zm0 0"/></g><path d="m467 362h-75v-15.003906c0-5.535156-3.046875-10.617188-7.925781-13.226563-4.863281-2.605469-10.796875-2.3125-15.394531.746094l-60 45.003906c-4.175782 2.78125-6.679688 7.46875-6.679688 12.480469 0 5.007812 2.503906 9.695312 6.679688 12.480469l60 45c4.648437 3.097656 10.585937 3.324219 15.394531.746093 4.878906-2.605468 7.925781-7.691406 7.925781-13.226562v-15h90c16.5 0 30 13.5 30 30v-45c0-24.851562-20.148438-45-45-45zm0 0" fill="#7984eb"/><path d="m362 287c0 8.398438-6.597656 15-15 15h-91v-30h91c8.402344 0 15 6.597656 15 15zm0 0" fill="#8ebac5"/><path d="m362 227c0 8.398438-6.597656 15-15 15h-91v-30h91c8.402344 0 15 6.597656 15 15zm0 0" fill="#8ebac5"/><path d="m347 182h-91v-30h91c8.402344 0 15 6.597656 15 15 0 8.398438-6.597656 15-15 15zm0 0" fill="#8ebac5"/><path d="m45 92h75v-15.003906c0-5.535156 3.046875-10.617188 7.925781-13.226563 4.863281-2.605469 10.796875-2.3125 15.394531.746094l61 45.003906c4.175782 2.78125 6.679688 7.46875 6.679688 12.480469 0 5.007812-2.503906 9.695312-6.679688 12.480469l-61 45c-4.648437 3.097656-10.585937 3.324219-15.394531.746093-4.878906-2.605468-7.925781-7.691406-7.925781-13.226562v-15h-90c-16.5 0-30 13.5-30 30v-45c0-24.851562 20.148438-45 45-45zm0 0" fill="#979fef"/></svg>